<?xml version="1.0" standalone="no"?><!DOCTYPE svg PUBLIC "-//W3C//DTD SVG 1.1//EN" "http://www.w3.org/Graphics/SVG/1.1/DTD/svg11.dtd"><svg t="1686820358956" class="icon" viewBox="0 0 1024 1024" version="1.1" xmlns="http://www.w3.org/2000/svg" p-id="22203" xmlns:xlink="http://www.w3.org/1999/xlink" width="16" height="16"><path d="M175.018667 856.021333l130.005333-44.032 23.04 12.032c54.613333 26.666667 115.968 39.978667 183.978667 39.978667 114.005333-2.688 205.994667-37.333333 276.010666-104.021333 69.973333-66.645333 105.984-149.333333 107.946667-247.978667-1.962667-99.328-37.802667-182.186667-107.434667-248.490667C718.890667 197.12 626.730667 162.645333 512 160c-114.688 2.688-206.848 37.162667-276.522667 103.509333C165.845333 329.813333 130.005333 412.586667 128 512c0 37.333333 6.058667 73.344 18.048 107.989333 11.989333 34.688 29.013333 66.688 51.029333 96l22.016 29.013334-44.074666 111.018666z m-46.037334 82.005334a29.226667 29.226667 0 0 1-32.512-8.533334c-8.96-9.685333-11.178667-20.821333-6.485333-33.493333l56.021333-141.013333A405.76 405.76 0 0 1 84.992 640a396.544 396.544 0 0 1-20.992-128c1.365333-109.994667 41.514667-205.824 120.490667-287.488C263.509333 142.848 372.693333 100.010667 512 96c139.306667 4.010667 248.490667 46.848 327.466667 128.512C918.485333 306.176 958.634667 402.005333 960 512c-1.365333 109.994667-41.685333 205.824-121.002667 287.488-79.317333 81.664-188.330667 124.501333-326.997333 128.512-80-0.64-150.656-16.341333-212.010667-47.018667l-171.008 57.045334z" fill="#08080A" fill-opacity=".96" p-id="22204"></path></svg>